<svg width="119" height="112" viewBox="0 0 119 112" fill="none" xmlns="http://www.w3.org/2000/svg">
<g clip-path="url(#clip0_131_2516)">
<path d="M59.0685 1.52667C26.45 1.52667 0 26.4266 0 57.143C0 81.7161 16.9249 102.564 40.3947 109.918C43.3465 110.432 44.4306 108.711 44.4306 107.242C44.4306 105.916 44.3754 101.534 44.3504 96.8873C27.9172 100.252 24.4497 90.3252 24.4497 90.3252C21.7627 83.8969 17.8912 82.1877 17.8912 82.1877C12.5322 78.7359 18.2952 78.8065 18.2952 78.8065C24.2268 79.1989 27.3502 84.5379 27.3502 84.5379C32.6183 93.0407 41.1685 90.5824 44.5392 89.1615C45.069 85.5664 46.6001 83.1135 48.2891 81.7244C35.1695 80.3178 21.3773 75.549 21.3773 54.2386C21.3773 48.1668 23.6848 43.205 27.4637 39.3102C26.8503 37.9091 24.8286 32.2527 28.0358 24.592C28.0358 24.592 32.9961 23.0971 44.284 30.293C48.9952 29.0604 54.0484 28.4426 59.0685 28.4217C64.0882 28.4426 69.1454 29.0604 73.8661 30.293C85.1406 23.0971 90.0935 24.592 90.0935 24.592C93.3087 32.2527 91.2862 37.9091 90.6728 39.3102C94.4599 43.205 96.7516 48.1662 96.7516 54.2386C96.7516 75.5995 82.9333 80.3035 69.7805 81.6799C71.899 83.406 73.7868 86.791 73.7868 91.9795C73.7868 99.4208 73.7182 105.41 73.7182 107.242C73.7182 108.722 74.7813 110.456 77.7761 109.91C101.233 102.548 118.136 81.7081 118.136 57.143C118.136 26.4266 91.6901 1.52667 59.0685 1.52667Z" fill="#4350C6"/>
<path d="M22.1231 80.7536C21.9934 81.0297 21.531 81.1127 21.1109 80.9232C20.6823 80.7418 20.4414 80.3649 20.5804 80.0876C20.7078 79.8031 21.1702 79.7236 21.5977 79.9148C22.0272 80.0956 22.2718 80.4763 22.1231 80.7536ZM25.0287 83.1944C24.747 83.4404 24.1962 83.3262 23.8223 82.9375C23.436 82.5497 23.3637 82.0315 23.6495 81.7815C23.94 81.5361 24.4742 81.6509 24.8614 82.039C25.2478 82.4311 25.3229 82.9464 25.0282 83.195M27.0221 86.3176C26.6598 86.5544 26.0678 86.3325 25.7023 85.8379C25.3404 85.3436 25.3404 84.7502 25.7101 84.5126C26.0771 84.2749 26.6598 84.4887 27.0304 84.9793C27.3918 85.4822 27.3918 86.0756 27.0216 86.3181M30.3928 89.935C30.069 90.2709 29.3796 90.181 28.8747 89.722C28.3586 89.2737 28.2145 88.6373 28.5393 88.3008C28.8668 87.9641 29.5603 88.0588 30.069 88.5138C30.5817 88.9613 30.7378 89.6026 30.3928 89.935ZM34.7493 91.1562C34.6072 91.5916 33.9429 91.7897 33.2737 91.6046C32.6057 91.4139 32.1686 90.9036 32.3033 90.4635C32.4423 90.0252 33.1094 89.8188 33.7835 90.0168C34.4505 90.2066 34.8883 90.713 34.7493 91.1562ZM39.7081 91.674C39.7248 92.1327 39.1572 92.5134 38.455 92.5214C37.7486 92.536 37.1773 92.1646 37.17 91.7136C37.17 91.2503 37.7246 90.8737 38.4303 90.8628C39.1328 90.8496 39.7081 91.2182 39.7081 91.674ZM44.579 91.4983C44.6632 91.9459 44.1747 92.4054 43.4778 92.5277C42.7921 92.6454 42.1574 92.3693 42.0699 91.9258C41.9845 91.4668 42.4821 91.0075 43.1662 90.8883C43.865 90.7741 44.49 91.0434 44.579 91.4983Z" fill="#4350C6"/>
</g>
<defs>
<clipPath id="clip0_131_2516">
<rect width="118.595" height="111.665" fill="white"/>
</clipPath>
</defs>
</svg>
