<svg width="1000" height="913" viewBox="0 0 1000 913" fill="none" xmlns="http://www.w3.org/2000/svg">
<path d="M499.865 68.5369L599.296 0L662.422 97.9805L783.257 69.5266L800.325 182.105L923.869 197.94L892.441 308.045L1000 365.695L924.682 456.5L1000 547.305L892.441 604.955L923.869 715.06L800.325 730.895L783.257 843.474L662.422 815.02L599.296 913L499.865 844.463L400.433 913L337.307 815.02L216.743 843.474L199.404 730.895L76.1311 715.06L107.559 604.955L0 547.305L75.0474 456.5L0 365.695L107.559 308.045L76.1311 197.94L199.404 182.105L216.743 69.5266L337.307 97.9805L400.433 0L499.865 68.5369Z" fill="#4350C6"/>
</svg>
