<svg width="112" height="90" viewBox="0 0 112 90" fill="none" xmlns="http://www.w3.org/2000/svg">
<path fill-rule="evenodd" clip-rule="evenodd" d="M7.64553 39.0745C37.6141 26.5074 57.5646 18.157 67.5827 14.1057C96.0956 2.61346 102.089 0.629187 105.942 0.546509C106.799 0.546509 108.682 0.711866 109.967 1.704C110.994 2.53079 111.251 3.6056 111.422 4.43238C111.594 5.25917 111.765 6.9954 111.594 8.31825C110.052 24.0271 103.374 62.1417 99.9487 79.6695C98.4931 87.1105 95.6675 89.5909 92.9275 89.8389C86.9338 90.335 82.3957 86.0357 76.6588 82.3979C67.5827 76.6931 62.5308 73.1379 53.7115 67.5158C43.5222 61.0669 50.1153 57.5117 55.9377 51.7243C57.479 50.2361 83.7657 27.0862 84.2794 25.0192C84.3651 24.7712 84.365 23.7791 83.7657 23.283C83.1663 22.7869 82.3101 22.9523 81.6251 23.1176C80.6832 23.283 66.2983 32.5429 38.2991 50.8148C34.1891 53.5432 30.5073 54.866 27.1679 54.7834C23.4861 54.7007 16.4648 52.7991 11.1561 51.1455C4.73429 49.1612 -0.403174 48.0864 0.0249485 44.614C0.281822 42.795 2.85055 40.9761 7.64553 39.0745Z" fill="#4350C6"/>
</svg>
