<svg width="124" height="77" viewBox="0 0 124 77" fill="none" xmlns="http://www.w3.org/2000/svg">
<path d="M120.428 5.24136C119.041 9.77285 117.172 13.7172 114.831 17.2986L114.928 17.1385C112.628 21.1238 109.881 25.7282 106.687 30.9518C103.948 35.0759 102.499 37.2108 102.338 37.3567C101.629 38.2801 101.136 39.4116 100.967 40.6553L100.962 40.6926C101.1 41.8242 101.603 42.8116 102.338 43.5482L104.392 45.9286C115.38 57.6674 121.561 65.759 122.934 70.2033C123.113 70.6943 123.216 71.2601 123.216 71.8526C123.216 72.888 122.898 73.8434 122.359 74.628L122.369 74.612C121.465 75.5781 120.202 76.1759 118.805 76.1759C118.651 76.1759 118.492 76.1706 118.343 76.1545H118.364H104.854C104.849 76.1545 104.838 76.1545 104.828 76.1545C103.098 76.1545 101.506 75.5247 100.258 74.4786L100.274 74.4893C98.4558 72.9361 96.8383 71.2548 95.3903 69.4294L95.3441 69.3653C92.9786 66.5863 90.8802 64.2467 89.0487 62.3466C82.9485 56.3189 78.447 53.305 75.544 53.305C75.4362 53.2943 75.313 53.289 75.1846 53.289C74.3374 53.289 73.5466 53.5612 72.8945 54.0255L72.9099 54.0149C72.3758 54.7087 72.0523 55.6054 72.0523 56.5715C72.0523 56.7636 72.0626 56.9451 72.0883 57.1319V57.1106C71.9496 58.7865 71.8675 60.7347 71.8675 62.7042C71.8675 63.3394 71.8778 63.9692 71.8932 64.599V64.5083V70.6944C71.9445 70.9452 71.9753 71.2334 71.9753 71.527C71.9753 72.8186 71.4105 73.9715 70.5273 74.7348L70.5222 74.7401C68.535 75.6849 66.214 76.24 63.7647 76.24C63.2409 76.24 62.7274 76.2133 62.2191 76.1652L62.2858 76.1706C54.2036 76.0104 46.7067 73.5499 40.3343 69.4027L40.514 69.5094C32.7553 64.6097 26.3264 58.2314 21.4278 50.695L21.2891 50.4708C16.6369 44.0552 12.298 36.807 8.60089 29.1638L8.24145 28.3418C6.07967 24.0612 3.84087 18.7985 1.91017 13.3863L1.60208 12.3989C0.816443 9.96499 0.246473 7.13615 0.0102697 4.2059L0 4.07246C0 1.37528 1.52676 0.0266878 4.58029 0.0266878H18.085C18.2082 0.0160129 18.352 0.0106741 18.5009 0.0106741C19.7743 0.0106741 20.9502 0.464357 21.8796 1.22761L21.8694 1.21694C22.8963 2.38584 23.6563 3.8216 24.0311 5.42283L24.0465 5.48688C26.5318 12.7832 29.166 18.9105 32.1956 24.7817L31.8515 24.0505C34.3265 29.2278 37.0634 33.6846 40.1854 37.7997L40.0673 37.6343C42.8059 41.1285 44.942 42.8756 46.4756 42.8756C46.5218 42.881 46.5783 42.881 46.6399 42.881C47.3999 42.881 48.0623 42.454 48.4217 41.8135L48.4269 41.8028C48.8068 40.7887 49.0276 39.6091 49.0276 38.3815C49.0276 38.12 49.0174 37.8584 48.9968 37.6022V37.6343V16.9303C48.889 14.4911 48.3139 12.2121 47.3537 10.1678L47.3947 10.2692C46.758 8.86014 45.9929 7.64321 45.0841 6.55971L45.0995 6.58106C44.2574 5.70572 43.6822 4.55817 43.5025 3.27719L43.4974 3.24516C43.4974 2.3378 43.8979 1.52117 44.5244 0.987426L44.5295 0.982088C45.1508 0.389633 45.9827 0.0320248 46.8915 0.0320248H46.9326H68.2217C68.3347 0.0160125 68.4631 0.0106741 68.5966 0.0106741C69.5979 0.0106741 70.4965 0.48037 71.0921 1.21694L71.0973 1.22227C71.6262 2.22571 71.9394 3.42664 71.9394 4.69695C71.9394 4.89977 71.9291 5.09725 71.9137 5.29474V5.26805V32.8786C71.9034 33.0067 71.8983 33.1562 71.8983 33.3056C71.8983 34.2877 72.1602 35.2111 72.612 35.9957L72.6018 35.9743C72.9766 36.5508 73.6031 36.9244 74.3117 36.9244C75.2154 36.8603 76.0421 36.5508 76.7353 36.0597L76.7199 36.0704C78.1166 35.0723 79.3182 33.9354 80.3605 32.6491L80.3811 32.6224C83.4979 28.9609 86.3735 24.9152 88.8793 20.6132L89.0795 20.2396C90.8459 17.1972 92.7561 13.4503 94.4865 9.60205L94.8049 8.81745L97.0951 4.05645C97.891 1.67595 100.027 0 102.538 0C102.636 0 102.733 -3.87252e-07 102.831 0.00533705H102.815H116.325C119.974 0.00533705 121.344 1.75068 120.433 5.24136H120.428Z" fill="#4350C6"/>
</svg>
